<svg width="0" height="0" class="hidden">
  <symbol fill="inherit" xmlns="http://www.w3.org/2000/svg" viewBox="0 0 13 13" id="search">
    <g clip-path="url(#clip0_9_19)">
      <path d="M12.8416 12.0758L9.60783 8.84204C10.4886 7.76481 10.9216 6.39027 10.8173 5.00273C10.7131 3.61519 10.0795 2.3208 9.04763 1.3873C8.01577 0.453803 6.66459 -0.0473866 5.27357 -0.0126007C3.88255 0.0221852 2.55811 0.590285 1.57421 1.57419C0.5903 2.5581 0.0222005 3.88254 -0.0125854 5.27356C-0.0473713 6.66458 0.453818 8.01576 1.38732 9.04761C2.32081 10.0795 3.6152 10.7131 5.00274 10.8173C6.39029 10.9216 7.76483 10.4886 8.84205 9.60782L12.0758 12.8416C12.1791 12.9339 12.3139 12.9832 12.4524 12.9793C12.5909 12.9754 12.7227 12.9186 12.8207 12.8207C12.9187 12.7227 12.9754 12.5909 12.9793 12.4524C12.9832 12.3139 12.9339 12.1791 12.8416 12.0758ZM5.41737 9.75001C4.55987 9.75041 3.72153 9.49647 3.00838 9.02033C2.29523 8.54418 1.73933 7.86721 1.411 7.07507C1.08266 6.28293 0.996649 5.4112 1.16384 4.57016C1.33103 3.72913 1.74391 2.95657 2.35025 2.35023C2.95659 1.74389 3.72914 1.33101 4.57018 1.16382C5.41121 0.996633 6.28294 1.08265 7.07509 1.41098C7.86723 1.73931 8.5442 2.29522 9.02034 3.00836C9.49649 3.72151 9.75042 4.55986 9.75002 5.41735C9.74841 6.56595 9.29142 7.66704 8.47924 8.47922C7.66705 9.2914 6.56596 9.74839 5.41737 9.75001Z"></path>
    </g>
    <defs>
      <clipPath id="clip0_9_19">
        <rect width="13" height="13" fill="white"></rect>
      </clipPath>
    </defs>
  </symbol>

  <symbol fill="inherit" xmlns="http://www.w3.org/2000/svg" viewBox="0 0 24 24" id="bag">
    <path d="M20.94 18.06L19.26 8.31C19.1453 7.47997 18.7404 6.71734 18.1172 6.15725C17.4939 5.59716 16.6926 5.27576 15.855 5.25H15.75C15.75 4.25544 15.3549 3.30161 14.6517 2.59835C13.9484 1.89509 12.9946 1.5 12 1.5C11.0055 1.5 10.0516 1.89509 9.34837 2.59835C8.64511 3.30161 8.25002 4.25544 8.25002 5.25H8.14502C7.30749 5.27576 6.50611 5.59716 5.88287 6.15725C5.25963 6.71734 4.85477 7.47997 4.74002 8.31L3.06002 18.06C2.95683 18.6256 2.97926 19.2071 3.12572 19.7631C3.27217 20.3191 3.53907 20.8361 3.90752 21.2775C4.21796 21.6565 4.60803 21.9625 5.05003 22.1738C5.49204 22.385 5.97513 22.4964 6.46502 22.5H17.535C18.0249 22.4964 18.508 22.385 18.95 22.1738C19.392 21.9625 19.7821 21.6565 20.0925 21.2775C20.461 20.8361 20.7279 20.3191 20.8743 19.7631C21.0208 19.2071 21.0432 18.6256 20.94 18.06ZM12 3C12.5968 3 13.1691 3.23705 13.591 3.65901C14.013 4.08097 14.25 4.65326 14.25 5.25H9.75002C9.75002 4.65326 9.98707 4.08097 10.409 3.65901C10.831 3.23705 11.4033 3 12 3ZM18.945 20.31C18.7755 20.522 18.5612 20.6938 18.3174 20.8131C18.0736 20.9325 17.8064 20.9963 17.535 21H6.46502C6.19362 20.9963 5.92643 20.9325 5.68263 20.8131C5.43883 20.6938 5.2245 20.522 5.05502 20.31C4.82646 20.0365 4.66149 19.7157 4.57199 19.3707C4.4825 19.0257 4.47073 18.6651 4.53752 18.315L6.21752 8.565C6.27335 8.08382 6.49737 7.63782 6.85004 7.30574C7.20271 6.97365 7.66135 6.77683 8.14502 6.75H15.855C16.3387 6.77683 16.7973 6.97365 17.15 7.30574C17.5027 7.63782 17.7267 8.08382 17.7825 8.565L19.4625 18.315C19.5293 18.6651 19.5175 19.0257 19.428 19.3707C19.3386 19.7157 19.1736 20.0365 18.945 20.31Z"></path>
  </symbol>

  <symbol fill="inherit" xmlns="http://www.w3.org/2000/svg" viewBox="0 0 24 24" id="heart">
    <path d="M3 12C0.75 9 1.5 4.5 5.25 3C9 1.5 11.25 4.5 12 6C12.75 4.5 15.75 1.5 19.5 3C23.25 4.5 23.25 9 21 12C18.75 15 12 21 12 21C12 21 5.25 15 3 12Z" stroke-width="2" stroke-linecap="round" stroke-linejoin="round"></path>
  </symbol>

  <symbol fill="inherit" xmlns="http://www.w3.org/2000/svg" viewBox="0 0 25 25" id="instagram">
    <path d="M15.3645 23.4376H9.11454C3.45829 23.4376 1.04163 21.0209 1.04163 15.3647V9.11467C1.04163 3.45842 3.45829 1.04175 9.11454 1.04175H15.3645C21.0208 1.04175 23.4375 3.45842 23.4375 9.11467V15.3647C23.4375 21.0209 21.0208 23.4376 15.3645 23.4376ZM9.11454 2.60425C4.31246 2.60425 2.60413 4.31258 2.60413 9.11467V15.3647C2.60413 20.1667 4.31246 21.8751 9.11454 21.8751H15.3645C20.1666 21.8751 21.875 20.1667 21.875 15.3647V9.11467C21.875 4.31258 20.1666 2.60425 15.3645 2.60425H9.11454Z"></path>
    <path d="M12.5 16.9271C11.3267 16.9243 10.2022 16.457 9.37258 15.6274C8.54293 14.7977 8.07563 13.6733 8.07288 12.5C8.07563 11.3267 8.54293 10.2023 9.37258 9.37262C10.2022 8.54298 11.3267 8.07567 12.5 8.07292C13.6732 8.07567 14.7977 8.54298 15.6273 9.37262C16.457 10.2023 16.9243 11.3267 16.927 12.5C16.9243 13.6733 16.457 14.7977 15.6273 15.6274C14.7977 16.457 13.6732 16.9243 12.5 16.9271V16.9271ZM12.5 9.63542C10.9166 9.63542 9.63538 10.9167 9.63538 12.5C9.63538 14.0833 10.9166 15.3646 12.5 15.3646C14.0833 15.3646 15.3645 14.0833 15.3645 12.5C15.3645 10.9167 14.0833 9.63542 12.5 9.63542ZM17.7083 7.8125C17.5729 7.8125 17.4375 7.78125 17.3125 7.72917C17.1875 7.67709 17.0729 7.60417 16.9687 7.51042C16.875 7.40625 16.7916 7.29167 16.7395 7.16667C16.6894 7.04083 16.6646 6.9063 16.6666 6.77084C16.6666 6.63542 16.6875 6.5 16.7395 6.375C16.802 6.23959 16.875 6.13542 16.9687 6.03125C17.0208 5.98959 17.0729 5.9375 17.125 5.90625C17.1875 5.86459 17.25 5.83334 17.3125 5.8125C17.5023 5.73356 17.7112 5.7122 17.9131 5.7511C18.115 5.79 18.3009 5.88743 18.4479 6.03125C18.5416 6.13542 18.6145 6.23959 18.6666 6.375C18.7187 6.5 18.75 6.63542 18.75 6.77084C18.75 6.90625 18.7187 7.04167 18.6666 7.16667C18.6145 7.29167 18.5416 7.40625 18.4479 7.51042C18.3437 7.60417 18.2291 7.67709 18.1041 7.72917C17.9791 7.78125 17.8437 7.8125 17.7083 7.8125Z"></path>
  </symbol>

  <symbol fill="inherit" xmlns="http://www.w3.org/2000/svg" viewBox="0,0,25,25" id="vk"><g fill="#817575" fill-rule="nonzero" stroke="none" stroke-width="1" stroke-linecap="butt" stroke-linejoin="miter" stroke-miterlimit="10" stroke-dasharray="" stroke-dashoffset="0" font-family="none" font-weight="none" font-size="none" text-anchor="none" style="mix-blend-mode: normal"><g transform="scale(5.12,5.12)">
  <path d="M25,2c-12.6907,0 -23,10.3093 -23,23c0,12.69071 10.3093,23 23,23c12.69071,0 23,-10.30929 23,-23c0,-12.6907 -10.30929,-23 -23,-23zM25,4c11.60982,0 21,9.39018 21,21c0,11.60982 -9.39018,21 -21,21c-11.60982,0 -21,-9.39018 -21,-21c0,-11.60982 9.39018,-21 21,-21zM15.00195,18l-4.03516,0.00195c0,0 -0.2309,-0.01301 -0.50977,0.02344c-0.27887,0.03645 -0.69084,0.05337 -1.11328,0.53125l-0.00195,0.00195l-0.00195,0.00195c-0.37576,0.42972 -0.36143,0.92987 -0.31445,1.20508c0.0468,0.2742 0.15157,0.47895 0.15234,0.48047v0.00195c0.0388,0.09518 2.96864,7.27388 6.66211,11.13086c2.60525,2.72238 5.39156,3.62109 7.87305,3.62109h1.28711c0.42346,0 0.80165,-0.01927 1.2207,-0.23633c0.41905,-0.21706 0.7793,-0.8161 0.7793,-1.28125c0,-0.50117 0.01231,-0.98702 0.07617,-1.25781c0.05965,-0.25289 0.03663,-0.19082 0.06055,-0.19141c0.02397,0.0052 0.06761,0.01531 0.15039,0.05273c0.17839,0.08065 0.45404,0.26069 0.75977,0.49805c0.6105,0.47396 1.33363,1.16157 2.14453,1.69336c1.16145,0.76978 2.42188,0.72266 2.42188,0.72266h4.15625l0.04492,-0.00391c0,0 0.63776,-0.0145 1.29297,-0.41602c0.32761,-0.20076 0.71694,-0.56904 0.84766,-1.12109c0.13072,-0.55205 -0.03619,-1.13124 -0.35742,-1.64062c-0.11735,-0.18684 -0.68702,-1.01248 -2.96094,-3.03125c-0.58746,-0.52102 -0.98808,-0.88983 -1.14648,-1.08594c-0.05624,-0.06962 -0.06095,-0.0629 -0.07227,-0.06641c0.01325,-0.03419 0.14463,-0.31086 0.49609,-0.76758c0.3663,-0.47601 0.92293,-1.13924 1.63867,-2.05078c0.91224,-1.16219 1.5523,-2.2797 1.95508,-3.22266c0.20139,-0.47148 0.34415,-0.89929 0.42969,-1.28711c0.08554,-0.38781 0.1538,-0.71017 0.02734,-1.16992c-0.09432,-0.34223 -0.35047,-0.64875 -0.60156,-0.81055c-0.25109,-0.1618 -0.48519,-0.22274 -0.69531,-0.26172c-0.42025,-0.07796 -0.79103,-0.06445 -1.13672,-0.06445c-0.72381,0 -3.94144,0.02539 -4.20703,0.02539c-0.31171,0 -0.80896,0.12981 -1.03906,0.26172c-0.57127,0.32716 -0.75,0.77539 -0.75,0.77539l-0.05469,0.0957l-0.03125,0.10742c0,0 -0.73269,2.3702 -1.48633,3.5918h-0.00195c-0.88619,1.43911 -1.54723,2.00995 -1.83789,2.17188c-0.03087,0.0172 -0.01377,0.00806 -0.03516,0.01953c-0.02273,-0.06621 -0.05142,-0.15738 -0.07031,-0.32617c-0.04251,-0.38023 -0.01758,-0.91569 -0.01758,-1.43359c0,-1.43442 0.10772,-2.32888 -0.01172,-3.17578c-0.05972,-0.42345 -0.21176,-0.89502 -0.55859,-1.25781c-0.34683,-0.36279 -0.79482,-0.54137 -1.24219,-0.64453h-0.00195c-0.46623,-0.10737 -0.96868,-0.19958 -2.17578,-0.21094c-1.538,-0.01434 -2.53965,0.03334 -3.42969,0.42969l-0.00977,0.00586l-0.00781,0.00391c-0.35167,0.16519 -0.6289,0.35454 -0.87305,0.60742c-0.12207,0.12644 -0.2669,0.21852 -0.36719,0.62109c-0.05015,0.20129 -0.05565,0.58212 0.17188,0.89063c0.22752,0.3085 0.54638,0.40155 0.73438,0.42578c-0.03468,-0.0045 0.1479,0.03568 0.28906,0.10547c0.14116,0.06979 0.26372,0.17028 0.29492,0.21094v0.00195c-0.01305,-0.01695 0.1225,0.31991 0.1582,0.62695c0.0357,0.30704 0.0293,0.55469 0.0293,0.55469l-0.00195,0.06055l0.00586,0.06055c0,0 0.06139,0.67946 0.0293,1.38086c-0.01605,0.3507 -0.06038,0.70369 -0.11914,0.91992c-0.00311,0.01144 -0.00453,0.00743 -0.00781,0.01758c-0.25037,-0.17486 -0.8277,-0.78414 -1.62305,-2.09766c-0.73523,-1.21506 -1.42383,-3.40039 -1.42383,-3.40039l-0.01562,-0.04883l-0.01758,-0.04687c0,0 -0.12838,-0.48818 -0.69531,-0.88672c-0.53138,-0.37408 -1.03711,-0.42578 -1.03711,-0.42578zM14.76953,20c0.0572,0.02091 0.17678,0.064 0.19922,0.07422l-0.02344,-0.07031c0,0 0.03079,0.0707 0.03125,0.07227c0.00025,0.00014 0.00381,0.00185 0.00391,0.00195v0.00195h0.00195c-0.05026,-0.03516 -0.00765,-0.00026 -0.00195,0.00781c0.02762,0.09423 0.63822,2.19753 1.5918,3.77344c0.86868,1.43462 1.51045,2.23833 2.21094,2.71875c0.69981,0.47995 1.64083,0.43049 2.11914,0.18164c0.63923,-0.33197 0.81791,-0.87758 0.94141,-1.33203c0.12349,-0.45445 0.16755,-0.91551 0.1875,-1.35156c0.03807,-0.83199 -0.02704,-1.51259 -0.0332,-1.58008c0.001,-0.03759 0.0099,-0.36265 -0.04102,-0.80078c-0.05133,-0.44148 -0.14334,-0.99011 -0.53516,-1.54102c0.43889,-0.06521 0.68256,-0.16451 1.56836,-0.15625c1.12964,0.01063 1.30148,0.05776 1.74609,0.16016c0.24214,0.05584 0.26902,0.1021 0.24609,0.07813c-0.02292,-0.02398 -0.002,-0.04 0.02539,0.1543c0.05482,0.3885 -0.00781,1.3849 -0.00781,2.89648c0,0.4261 -0.04114,1.02698 0.0293,1.65625c0.07039,0.62887 0.26694,1.43353 1.02734,1.9043c0.43326,0.26814 1.26093,0.36036 2.04102,-0.07422c0.78009,-0.43458 1.5806,-1.26825 2.56641,-2.86914c0.97379,-1.57844 1.55613,-3.65369 1.61914,-3.87305c0,0 0.01111,-0.00722 0.01758,-0.01172c0.01767,0.00085 -0.00481,0.00391 0.02344,0.00391c0.37041,0 3.53084,-0.02539 4.20703,-0.02539c0.18603,0 0.26771,0.01001 0.40625,0.01563c-0.05599,0.2159 -0.13126,0.46732 -0.26953,0.79102c-0.32497,0.7608 -0.8827,1.74758 -1.68945,2.77539c-0.69526,0.88546 -1.2354,1.52771 -1.64844,2.06445c-0.41304,0.53674 -0.73752,0.96011 -0.87305,1.57227c-0.13553,0.61216 0.12306,1.30259 0.47656,1.74023c0.3535,0.43764 0.79096,0.80624 1.375,1.32422c2.20009,1.95323 2.56106,2.54445 2.5957,2.59961v0.00195c0.03715,0.05891 0.01306,-0.00034 0.02734,0.0293c-0.12475,0.03889 -0.27323,0.08287 -0.28711,0.08594h-4.04687h-0.00586c0,0 -0.74432,-0.0244 -1.29687,-0.39062l-0.00195,-0.00195h-0.00195c-0.58455,-0.38287 -1.29104,-1.03947 -2.01758,-1.60352c-0.36327,-0.28202 -0.73313,-0.54629 -1.16211,-0.74023c-0.42898,-0.19394 -0.97268,-0.33144 -1.54492,-0.16016c-0.82826,0.2479 -1.28791,1.03615 -1.43555,1.66211c-0.10598,0.44934 -0.09031,0.8401 -0.09375,1.23242c-0.02853,0.0015 -0.00384,0.00195 -0.03711,0.00195h-1.28711c-2.03251,0 -4.147,-0.62047 -6.42773,-3.00391c-2.96517,-3.09644 -5.61069,-9.08449 -6.00781,-9.99414zM32.21289,20.00781c-0.01815,0.00404 0.03377,0.00796 0.07617,0.01172c-0.00574,0.00311 0.00049,-0.00275 -0.00781,0.00195c-0.00084,-0.01671 -0.04396,-0.01911 -0.06836,-0.01367z"></path>
  </g></g>
  </symbol>

  <symbol fill="inherit" xmlns="http://www.w3.org/2000/svg" viewBox="0 0 25 25" id="youtube">
    <path d="M17.7084 21.6147H7.29171C3.70837 21.6147 1.30212 19.2084 1.30212 15.6251V9.37508C1.30212 5.79175 3.70837 3.3855 7.29171 3.3855H17.7084C21.2917 3.3855 23.698 5.79175 23.698 9.37508V15.6251C23.698 19.2084 21.2917 21.6147 17.7084 21.6147ZM7.29171 4.948C4.60421 4.948 2.86462 6.68758 2.86462 9.37508V15.6251C2.86462 18.3126 4.60421 20.0522 7.29171 20.0522H17.7084C20.3959 20.0522 22.1355 18.3126 22.1355 15.6251V9.37508C22.1355 6.68758 20.3959 4.948 17.7084 4.948H7.29171Z"></path>
    <path d="M11.0312 16.1771C10.7292 16.1771 10.4375 16.1042 10.1771 15.9584C9.57292 15.6146 9.21875 14.9167 9.21875 14.0521V10.9688C9.21875 10.1042 9.5625 9.40628 10.1771 9.06253C10.7813 8.71878 11.5625 8.78128 12.3021 9.22919L14.875 10.7709C15.5833 11.1979 15.9896 11.8334 15.9896 12.5104C15.9896 13.1875 15.5833 13.8229 14.875 14.25L12.3021 15.7917C11.875 16.0417 11.4375 16.1771 11.0312 16.1771V16.1771ZM11.0312 10.3854C10.9988 10.385 10.9667 10.3921 10.9375 10.4063C10.8646 10.4479 10.7813 10.6354 10.7813 10.9584V14.0417C10.7813 14.3542 10.8646 14.5417 10.9375 14.5938C11.0208 14.6354 11.2187 14.6146 11.4896 14.4479L14.0625 12.9063C14.3229 12.75 14.4167 12.5938 14.4167 12.5C14.4167 12.4063 14.3229 12.2604 14.0625 12.0938L11.4896 10.5521C11.3021 10.4375 11.1354 10.3854 11.0312 10.3854V10.3854Z"></path>
  </symbol>

  <symbol fill="inherit" xmlns="http://www.w3.org/2000/svg" viewBox="0 0 25 25" id="facebook">
    <path d="M15.3646 23.6979H10.6771V16.1458H9.6875C9.08333 16.1458 8.59375 15.6562 8.59375 15.0521V13.0729C8.59375 12.4687 9.08333 11.9792 9.6875 11.9792H10.6771V9.375C10.6771 7.21875 12.4271 5.46875 14.5833 5.46875H17.3958C18 5.46875 18.4896 5.95833 18.4896 6.5625V9.0625C18.4896 9.66667 18 10.1562 17.3958 10.1562H15.3646V11.9792H17.3229C17.4844 11.9783 17.6441 12.0135 17.7904 12.082C17.9366 12.1506 18.0658 12.2508 18.1685 12.3755C18.2712 12.5001 18.3449 12.6461 18.3842 12.8027C18.4236 12.9594 18.4275 13.1229 18.3958 13.2812L18 15.2604C17.8958 15.7708 17.4479 16.1354 16.9271 16.1354H15.3646V23.6979ZM12.2396 22.1354H13.8021V14.5833H16.5521L16.7604 13.5417H13.8125V9.6875C13.8125 9.08333 14.3021 8.59375 14.9063 8.59375H16.9375V7.03125H14.5833C13.2917 7.03125 12.2396 8.08333 12.2396 9.375V13.5417H10.1562V14.5833H12.2396V22.1354Z"></path>
    <path d="M15.625 23.6978H9.37504C3.71879 23.6978 1.30212 21.2812 1.30212 15.6249V9.37492C1.30212 3.71867 3.71879 1.302 9.37504 1.302H15.625C21.2813 1.302 23.698 3.71867 23.698 9.37492V15.6249C23.698 21.2812 21.2813 23.6978 15.625 23.6978ZM9.37504 2.8645C4.57296 2.8645 2.86462 4.57284 2.86462 9.37492V15.6249C2.86462 20.427 4.57296 22.1353 9.37504 22.1353H15.625C20.4271 22.1353 22.1355 20.427 22.1355 15.6249V9.37492C22.1355 4.57284 20.4271 2.8645 15.625 2.8645H9.37504Z"></path>
  </symbol>

  <symbol fill="inherit" xmlns="http://www.w3.org/2000/svg" viewBox="0 0 20 20" id="close">
    <path d="M4.375 4.375L15.625 15.625" stroke-width="2" stroke-linecap="round" stroke-linejoin="round"></path>
    <path d="M4.375 15.625L15.625 4.375" stroke-width="2" stroke-linecap="round" stroke-linejoin="round"></path>
  </symbol>

  <symbol fill="inherit" xmlns="http://www.w3.org/2000/svg" viewBox="0 0 15 15" id="plus">
    <g clip-path="url(#clip0_103_316)">
      <path d="M13.125 6.5625H8.4375V1.875C8.4375 1.3575 8.0175 0.9375 7.5 0.9375C6.9825 0.9375 6.5625 1.3575 6.5625 1.875V6.5625H1.875C1.3575 6.5625 0.9375 6.9825 0.9375 7.5C0.9375 8.0175 1.3575 8.4375 1.875 8.4375H6.5625V13.125C6.5625 13.6425 6.9825 14.0625 7.5 14.0625C8.0175 14.0625 8.4375 13.6425 8.4375 13.125V8.4375H13.125C13.6425 8.4375 14.0625 8.0175 14.0625 7.5C14.0625 6.9825 13.6425 6.5625 13.125 6.5625Z"></path>
    </g>
    <defs>
      <clipPath id="clip0_103_316">
        <rect width="15" height="15" fill="white"></rect>
      </clipPath>
    </defs>
  </symbol>

  <symbol fill="inherit" xmlns="http://www.w3.org/2000/svg" viewBox="0 0 19 19" id="minus">
    <path d="M15.4895 8.3125H3.51055C2.8834 8.3125 2.375 8.84316 2.375 9.5C2.375 10.1568 2.8834 10.6875 3.51055 10.6875H15.4895C16.1166 10.6875 16.625 10.1568 16.625 9.5C16.625 8.84316 16.1166 8.3125 15.4895 8.3125Z"></path>
  </symbol>
</svg>